<svg width="32" height="32" viewBox="0 0 32 32" fill="none" xmlns="http://www.w3.org/2000/svg">
<g clip-path="url(#clip0_5_5)">
<rect width="32" height="32" rx="6" fill="#191919"/>
<path d="M9.91973 22.09H8.49773L4.17773 12.55C3.99773 12.154 3.82973 11.842 3.67373 11.614C3.52973 11.374 3.34973 11.206 3.13373 11.11C2.92973 11.002 2.64173 10.948 2.26973 10.948V10.174H8.28173V10.948C8.05373 10.948 7.84373 10.966 7.65173 11.002C7.47173 11.026 7.32773 11.092 7.21973 11.2C7.11173 11.296 7.05773 11.452 7.05773 11.668C7.05773 11.968 7.12973 12.292 7.27373 12.64L9.30773 17.212L9.99173 18.976H10.1357L10.8017 17.176L12.7277 12.316C12.7517 12.256 12.7817 12.16 12.8177 12.028C12.8657 11.896 12.8897 11.746 12.8897 11.578C12.8897 11.338 12.7937 11.176 12.6017 11.092C12.4217 10.996 12.1397 10.948 11.7557 10.948V10.174H15.8417V10.948C15.5777 10.948 15.3557 10.978 15.1757 11.038C14.9957 11.098 14.8277 11.218 14.6717 11.398C14.5157 11.578 14.3477 11.854 14.1677 12.226C13.9877 12.598 13.7597 13.102 13.4837 13.738L9.91973 22.09ZM21.385 22H16.129V21.226C16.621 21.226 16.987 21.19 17.227 21.118C17.467 21.034 17.623 20.872 17.695 20.632C17.767 20.392 17.803 20.026 17.803 19.534V12.478C17.803 12.034 17.749 11.71 17.641 11.506C17.545 11.29 17.371 11.152 17.119 11.092C16.879 11.032 16.549 11.002 16.129 11.002V10.174H21.313C22.213 10.174 23.089 10.252 23.941 10.408C24.793 10.564 25.561 10.846 26.245 11.254C26.929 11.662 27.469 12.238 27.865 12.982C28.273 13.726 28.477 14.692 28.477 15.88C28.477 17.056 28.291 18.04 27.919 18.832C27.559 19.612 27.049 20.236 26.389 20.704C25.741 21.172 24.985 21.508 24.121 21.712C23.269 21.904 22.357 22 21.385 22ZM21.295 20.974C22.195 20.974 22.969 20.842 23.617 20.578C24.265 20.314 24.763 19.834 25.111 19.138C25.459 18.43 25.633 17.41 25.633 16.078C25.633 14.506 25.267 13.3 24.535 12.46C23.815 11.62 22.693 11.2 21.169 11.2C21.061 11.2 20.953 11.2 20.845 11.2C20.749 11.2 20.623 11.206 20.467 11.218V20.956C20.611 20.968 20.755 20.974 20.899 20.974C21.043 20.974 21.175 20.974 21.295 20.974Z" fill="white"/>
</g>
<defs>
<clipPath id="clip0_5_5">
<rect width="32" height="32" fill="white"/>
</clipPath>
</defs>
</svg>
