<svg width="16" height="16" viewBox="0 0 16 16" fill="none" xmlns="http://www.w3.org/2000/svg">
<rect width="16" height="16" rx="8" fill="black"/>
<path d="M3.46023 5.18182L5.07955 9.92045H5.14489L6.7642 5.18182H7.71307L5.61932 11H4.60511L2.51136 5.18182H3.46023ZM10.4368 11H8.55327V5.18182H10.4964C11.0665 5.18182 11.5561 5.2983 11.9652 5.53125C12.3743 5.76231 12.6877 6.0947 12.9055 6.52841C13.1252 6.96023 13.2351 7.47822 13.2351 8.08239C13.2351 8.68845 13.1243 9.20928 12.9027 9.64489C12.683 10.0805 12.3648 10.4157 11.9482 10.6506C11.5315 10.8835 11.0277 11 10.4368 11ZM9.43111 10.233H10.3885C10.8317 10.233 11.2 10.1496 11.4936 9.98295C11.7872 9.81439 12.0069 9.57102 12.1527 9.25284C12.2985 8.93277 12.3714 8.54261 12.3714 8.08239C12.3714 7.62595 12.2985 7.23864 12.1527 6.92045C12.0088 6.60227 11.7938 6.3608 11.5078 6.19602C11.2218 6.03125 10.8667 5.94886 10.4425 5.94886H9.43111V10.233Z" fill="white"/>
</svg>
